<svg xmlns="http://www.w3.org/2000/svg" xmlns:xlink="http://www.w3.org/1999/xlink" contentStyleType="text/css" data-diagram-type="CLASS" height="1328px" preserveAspectRatio="none" style="width:1122px;height:1328px;background:#FFFFFF;" version="1.1" viewBox="0 0 1122 1328" width="1122px" zoomAndPan="magnify"><?plantuml 1.2026.7beta1?><defs/><g><!--class user--><g class="entity" data-qualified-name="user" data-source-line="12" id="ent0001"><rect fill="#F1F1F1" height="286.75" rx="2.5" ry="2.5" style="stroke:#181818;stroke-width:0.5;" width="255.5918" x="486.33" y="7"/><text fill="#000000" font-family="sans-serif" font-size="14" lengthAdjust="spacing" textLength="30.5361" x="598.8578" y="24.9951">user</text><line style="stroke:#181818;stroke-width:0.5;" x1="487.33" x2="740.9218" y1="33.2969" y2="33.2969"/><g data-visibility-modifier="IE_MANDATORY"><ellipse cx="497.33" cy="46.9453" fill="#000000" rx="3" ry="3" style="stroke:#000000;stroke-width:1;"/></g><text fill="#000000" font-family="sans-serif" font-size="14" lengthAdjust="spacing" textLength="88.751" x="506.33" y="50.292">id : INT &#171;PK&#187;</text><line style="stroke:#181818;stroke-width:1;" x1="487.33" x2="740.9218" y1="57.5938" y2="57.5938"/><text fill="#000000" font-family="sans-serif" font-size="14" lengthAdjust="spacing" textLength="117.8174" x="492.33" y="74.5889">firstName : TEXT</text><text fill="#000000" font-family="sans-serif" font-size="14" lengthAdjust="spacing" textLength="115.7119" x="492.33" y="90.8857">lastName : TEXT</text><text fill="#000000" font-family="sans-serif" font-size="14" lengthAdjust="spacing" textLength="117.4277" x="492.33" y="107.1826">nickname : TEXT</text><text fill="#000000" font-family="sans-serif" font-size="14" lengthAdjust="spacing" textLength="87.7666" x="492.33" y="123.4795">email : TEXT</text><text fill="#000000" font-family="sans-serif" font-size="14" lengthAdjust="spacing" textLength="115.8691" x="492.33" y="139.7764">password : TEXT</text><text fill="#000000" font-family="sans-serif" font-size="14" lengthAdjust="spacing" textLength="243.5918" x="492.33" y="156.0732">role : ENUM(listener, artist, admin)</text><text fill="#000000" font-family="sans-serif" font-size="14" lengthAdjust="spacing" textLength="94.4248" x="492.33" y="172.3701">avatar : TEXT</text><text fill="#000000" font-family="sans-serif" font-size="14" lengthAdjust="spacing" textLength="70.499" x="492.33" y="188.667">bio : TEXT</text><text fill="#000000" font-family="sans-serif" font-size="14" lengthAdjust="spacing" textLength="118.3984" x="492.33" y="204.9639">isVerified : BOOL</text><text fill="#000000" font-family="sans-serif" font-size="14" lengthAdjust="spacing" textLength="155.8936" x="492.33" y="221.2607">isArtistVerified : BOOL</text><text fill="#000000" font-family="sans-serif" font-size="14" lengthAdjust="spacing" textLength="177.5361" x="492.33" y="237.5576">verifyCode : VARCHAR(6)</text><text fill="#000000" font-family="sans-serif" font-size="14" lengthAdjust="spacing" textLength="152.6807" x="492.33" y="253.8545">verifyExpires : BIGINT</text><text fill="#000000" font-family="sans-serif" font-size="14" lengthAdjust="spacing" textLength="159.6807" x="492.33" y="270.1514">created_at : DATETIME</text><text fill="#000000" font-family="sans-serif" font-size="14" lengthAdjust="spacing" textLength="164.2607" x="492.33" y="286.4482">updated_at : DATETIME</text></g><!--class track--><g class="entity" data-qualified-name="track" data-source-line="31" id="ent0002"><rect fill="#F1F1F1" height="311.0469" rx="2.5" ry="2.5" style="stroke:#181818;stroke-width:0.5;" width="270.0566" x="362.1" y="594.43"/><text fill="#000000" font-family="sans-serif" font-size="14" lengthAdjust="spacing" textLength="35.6289" x="479.3139" y="612.4251">track</text><line style="stroke:#181818;stroke-width:0.5;" x1="363.1" x2="631.1566" y1="620.7269" y2="620.7269"/><g data-visibility-modifier="IE_MANDATORY"><ellipse cx="373.1" cy="634.3753" fill="#000000" rx="3" ry="3" style="stroke:#000000;stroke-width:1;"/></g><text fill="#000000" font-family="sans-serif" font-size="14" lengthAdjust="spacing" textLength="88.751" x="382.1" y="637.722">id : INT &#171;PK&#187;</text><line style="stroke:#181818;stroke-width:1;" x1="363.1" x2="631.1566" y1="645.0238" y2="645.0238"/><g data-visibility-modifier="PROTECTED_FIELD"><polygon fill="none" points="373.1,653.6722,377.1,657.6722,373.1,661.6722,369.1,657.6722" style="stroke:#B38D22;stroke-width:1;stroke-linejoin:miter;stroke-miterlimit:10;"/></g><text fill="#000000" font-family="sans-serif" font-size="14" lengthAdjust="spacing" textLength="119.1367" x="382.1" y="662.0189">userId : INT &#171;FK&#187;</text><line style="stroke:#181818;stroke-width:1;" x1="363.1" x2="631.1566" y1="669.3206" y2="669.3206"/><text fill="#000000" font-family="sans-serif" font-size="14" lengthAdjust="spacing" textLength="109.4775" x="368.1" y="686.3157">title : VARCHAR</text><text fill="#000000" font-family="sans-serif" font-size="14" lengthAdjust="spacing" textLength="159.9473" x="368.1" y="702.6126">description : VARCHAR</text><text fill="#000000" font-family="sans-serif" font-size="14" lengthAdjust="spacing" textLength="122.8486" x="368.1" y="718.9095">genre : VARCHAR</text><text fill="#000000" font-family="sans-serif" font-size="14" lengthAdjust="spacing" textLength="113.0459" x="368.1" y="735.2064">featuring : TEXT</text><text fill="#000000" font-family="sans-serif" font-size="14" lengthAdjust="spacing" textLength="68.1816" x="368.1" y="751.5032">bpm : INT</text><text fill="#000000" font-family="sans-serif" font-size="14" lengthAdjust="spacing" textLength="142.2559" x="368.1" y="767.8001">file_path : VARCHAR</text><text fill="#000000" font-family="sans-serif" font-size="14" lengthAdjust="spacing" textLength="159.8516" x="368.1" y="784.097">cover_path : VARCHAR</text><text fill="#000000" font-family="sans-serif" font-size="14" lengthAdjust="spacing" textLength="258.0566" x="368.1" y="800.3939">visibility : ENUM(public, private, link)</text><text fill="#000000" font-family="sans-serif" font-size="14" lengthAdjust="spacing" textLength="174.9043" x="368.1" y="816.6907">release_date : DATETIME</text><text fill="#000000" font-family="sans-serif" font-size="14" lengthAdjust="spacing" textLength="120.2031" x="368.1" y="832.9876">plays_count : INT</text><text fill="#000000" font-family="sans-serif" font-size="14" lengthAdjust="spacing" textLength="88.498" x="368.1" y="849.2845">size : BIGINT</text><text fill="#000000" font-family="sans-serif" font-size="14" lengthAdjust="spacing" textLength="127.1074" x="368.1" y="865.5814">isFeatured : BOOL</text><text fill="#000000" font-family="sans-serif" font-size="14" lengthAdjust="spacing" textLength="159.6807" x="368.1" y="881.8782">created_at : DATETIME</text><text fill="#000000" font-family="sans-serif" font-size="14" lengthAdjust="spacing" textLength="164.2607" x="368.1" y="898.1751">updated_at : DATETIME</text></g><!--class playlist--><g class="entity" data-qualified-name="playlist" data-source-line="52" id="ent0003"><rect fill="#F1F1F1" height="131.7813" rx="2.5" ry="2.5" style="stroke:#181818;stroke-width:0.5;" width="176.2607" x="9" y="684.06"/><text fill="#000000" font-family="sans-serif" font-size="14" lengthAdjust="spacing" textLength="50.2031" x="72.0288" y="702.0551">playlist</text><line style="stroke:#181818;stroke-width:0.5;" x1="10" x2="184.2607" y1="710.3569" y2="710.3569"/><g data-visibility-modifier="IE_MANDATORY"><ellipse cx="20" cy="724.0053" fill="#000000" rx="3" ry="3" style="stroke:#000000;stroke-width:1;"/></g><text fill="#000000" font-family="sans-serif" font-size="14" lengthAdjust="spacing" textLength="88.751" x="29" y="727.352">id : INT &#171;PK&#187;</text><line style="stroke:#181818;stroke-width:1;" x1="10" x2="184.2607" y1="734.6538" y2="734.6538"/><g data-visibility-modifier="PROTECTED_FIELD"><polygon fill="none" points="20,743.3022,24,747.3022,20,751.3022,16,747.3022" style="stroke:#B38D22;stroke-width:1;stroke-linejoin:miter;stroke-miterlimit:10;"/></g><text fill="#000000" font-family="sans-serif" font-size="14" lengthAdjust="spacing" textLength="119.1367" x="29" y="751.6489">userId : INT &#171;FK&#187;</text><line style="stroke:#181818;stroke-width:1;" x1="10" x2="184.2607" y1="758.9506" y2="758.9506"/><text fill="#000000" font-family="sans-serif" font-size="14" lengthAdjust="spacing" textLength="121.8096" x="15" y="775.9457">name : VARCHAR</text><text fill="#000000" font-family="sans-serif" font-size="14" lengthAdjust="spacing" textLength="159.6807" x="15" y="792.2426">created_at : DATETIME</text><text fill="#000000" font-family="sans-serif" font-size="14" lengthAdjust="spacing" textLength="164.2607" x="15" y="808.5395">updated_at : DATETIME</text></g><!--class playlist_track--><g class="entity" data-qualified-name="playlist_track" data-source-line="62" id="ent0004"><rect fill="#F1F1F1" height="91.1875" rx="2.5" ry="2.5" style="stroke:#181818;stroke-width:0.5;" width="164.8037" x="9.73" y="993.92"/><text fill="#000000" font-family="sans-serif" font-size="14" lengthAdjust="spacing" textLength="92.832" x="45.7158" y="1011.9151">playlist_track</text><line style="stroke:#181818;stroke-width:0.5;" x1="10.73" x2="173.5337" y1="1020.2169" y2="1020.2169"/><g data-visibility-modifier="IE_MANDATORY"><ellipse cx="20.73" cy="1033.8653" fill="#000000" rx="3" ry="3" style="stroke:#000000;stroke-width:1;"/></g><text fill="#000000" font-family="sans-serif" font-size="14" lengthAdjust="spacing" textLength="88.751" x="29.73" y="1037.212">id : INT &#171;PK&#187;</text><line style="stroke:#181818;stroke-width:1;" x1="10.73" x2="173.5337" y1="1044.5138" y2="1044.5138"/><g data-visibility-modifier="PROTECTED_FIELD"><polygon fill="none" points="20.73,1053.1622,24.73,1057.1622,20.73,1061.1622,16.73,1057.1622" style="stroke:#B38D22;stroke-width:1;stroke-linejoin:miter;stroke-miterlimit:10;"/></g><text fill="#000000" font-family="sans-serif" font-size="14" lengthAdjust="spacing" textLength="138.8037" x="29.73" y="1061.5089">playlistId : INT &#171;FK&#187;</text><g data-visibility-modifier="PROTECTED_FIELD"><polygon fill="none" points="20.73,1069.4591,24.73,1073.4591,20.73,1077.4591,16.73,1073.4591" style="stroke:#B38D22;stroke-width:1;stroke-linejoin:miter;stroke-miterlimit:10;"/></g><text fill="#000000" font-family="sans-serif" font-size="14" lengthAdjust="spacing" textLength="124.2295" x="29.73" y="1077.8057">trackId : INT &#171;FK&#187;</text></g><!--class comment--><g class="entity" data-qualified-name="comment" data-source-line="69" id="ent0005"><rect fill="#F1F1F1" height="148.0781" rx="2.5" ry="2.5" style="stroke:#181818;stroke-width:0.5;" width="194.4238" x="209.92" y="965.47"/><text fill="#000000" font-family="sans-serif" font-size="14" lengthAdjust="spacing" textLength="66.5137" x="273.8751" y="983.4651">comment</text><line style="stroke:#181818;stroke-width:0.5;" x1="210.92" x2="403.3438" y1="991.7669" y2="991.7669"/><g data-visibility-modifier="IE_MANDATORY"><ellipse cx="220.92" cy="1005.4153" fill="#000000" rx="3" ry="3" style="stroke:#000000;stroke-width:1;"/></g><text fill="#000000" font-family="sans-serif" font-size="14" lengthAdjust="spacing" textLength="88.751" x="229.92" y="1008.762">id : INT &#171;PK&#187;</text><line style="stroke:#181818;stroke-width:1;" x1="210.92" x2="403.3438" y1="1016.0638" y2="1016.0638"/><g data-visibility-modifier="PROTECTED_FIELD"><polygon fill="none" points="220.92,1024.7122,224.92,1028.7122,220.92,1032.7122,216.92,1028.7122" style="stroke:#B38D22;stroke-width:1;stroke-linejoin:miter;stroke-miterlimit:10;"/></g><text fill="#000000" font-family="sans-serif" font-size="14" lengthAdjust="spacing" textLength="119.1367" x="229.92" y="1033.0589">userId : INT &#171;FK&#187;</text><g data-visibility-modifier="PROTECTED_FIELD"><polygon fill="none" points="220.92,1041.0091,224.92,1045.0091,220.92,1049.0091,216.92,1045.0091" style="stroke:#B38D22;stroke-width:1;stroke-linejoin:miter;stroke-miterlimit:10;"/></g><text fill="#000000" font-family="sans-serif" font-size="14" lengthAdjust="spacing" textLength="124.2295" x="229.92" y="1049.3557">trackId : INT &#171;FK&#187;</text><g data-visibility-modifier="PROTECTED_FIELD"><polygon fill="none" points="220.92,1057.3059,224.92,1061.3059,220.92,1065.3059,216.92,1061.3059" style="stroke:#B38D22;stroke-width:1;stroke-linejoin:miter;stroke-miterlimit:10;"/></g><text fill="#000000" font-family="sans-serif" font-size="14" lengthAdjust="spacing" textLength="168.4238" x="229.92" y="1065.6526">parentId : INT &#171;FK, self&#187;</text><line style="stroke:#181818;stroke-width:1;" x1="210.92" x2="403.3438" y1="1072.9544" y2="1072.9544"/><text fill="#000000" font-family="sans-serif" font-size="14" lengthAdjust="spacing" textLength="77.0342" x="215.92" y="1089.9495">text : TEXT</text><text fill="#000000" font-family="sans-serif" font-size="14" lengthAdjust="spacing" textLength="159.6807" x="215.92" y="1106.2464">created_at : DATETIME</text></g><!--class comment_like--><g class="entity" data-qualified-name="comment_like" data-source-line="80" id="ent0006"><rect fill="#F1F1F1" height="139.9297" rx="2.5" ry="2.5" style="stroke:#181818;stroke-width:0.5;" width="205.8662" x="28.2" y="1173.55"/><text fill="#000000" font-family="sans-serif" font-size="14" lengthAdjust="spacing" textLength="98.0137" x="82.1263" y="1191.5451">comment_like</text><line style="stroke:#181818;stroke-width:0.5;" x1="29.2" x2="233.0662" y1="1199.8469" y2="1199.8469"/><g data-visibility-modifier="IE_MANDATORY"><ellipse cx="39.2" cy="1213.4953" fill="#000000" rx="3" ry="3" style="stroke:#000000;stroke-width:1;"/></g><text fill="#000000" font-family="sans-serif" font-size="14" lengthAdjust="spacing" textLength="88.751" x="48.2" y="1216.842">id : INT &#171;PK&#187;</text><line style="stroke:#181818;stroke-width:1;" x1="29.2" x2="233.0662" y1="1224.1438" y2="1224.1438"/><g data-visibility-modifier="PROTECTED_FIELD"><polygon fill="none" points="39.2,1232.7922,43.2,1236.7922,39.2,1240.7922,35.2,1236.7922" style="stroke:#B38D22;stroke-width:1;stroke-linejoin:miter;stroke-miterlimit:10;"/></g><text fill="#000000" font-family="sans-serif" font-size="14" lengthAdjust="spacing" textLength="119.1367" x="48.2" y="1241.1389">userId : INT &#171;FK&#187;</text><g data-visibility-modifier="PROTECTED_FIELD"><polygon fill="none" points="39.2,1249.0891,43.2,1253.0891,39.2,1257.0891,35.2,1253.0891" style="stroke:#B38D22;stroke-width:1;stroke-linejoin:miter;stroke-miterlimit:10;"/></g><text fill="#000000" font-family="sans-serif" font-size="14" lengthAdjust="spacing" textLength="155.1143" x="48.2" y="1257.4357">commentId : INT &#171;FK&#187;</text><line style="stroke:#181818;stroke-width:1;" x1="29.2" x2="233.0662" y1="1264.7375" y2="1264.7375"/><text fill="#000000" font-family="sans-serif" font-size="14" lengthAdjust="spacing" textLength="159.6807" x="34.2" y="1281.7326">created_at : DATETIME</text><line style="stroke:#181818;stroke-width:1;stroke-dasharray:1,2;" x1="29.2" x2="32.2" y1="1297.1828" y2="1297.1828"/><text fill="#000000" font-family="sans-serif" font-size="14" lengthAdjust="spacing" textLength="197.8662" x="32.2" y="1301.5295">UNIQUE(userId, commentId)</text><line style="stroke:#181818;stroke-width:1;stroke-dasharray:1,2;" x1="230.0662" x2="233.0662" y1="1297.1828" y2="1297.1828"/></g><!--class like--><g class="entity" data-qualified-name="like" data-source-line="90" id="ent0007"><rect fill="#F1F1F1" height="139.9297" rx="2.5" ry="2.5" style="stroke:#181818;stroke-width:0.5;" width="174.9814" x="457.64" y="969.55"/><text fill="#000000" font-family="sans-serif" font-size="14" lengthAdjust="spacing" textLength="24.5" x="532.8807" y="987.5451">like</text><line style="stroke:#181818;stroke-width:0.5;" x1="458.64" x2="631.6214" y1="995.8469" y2="995.8469"/><g data-visibility-modifier="IE_MANDATORY"><ellipse cx="468.64" cy="1009.4953" fill="#000000" rx="3" ry="3" style="stroke:#000000;stroke-width:1;"/></g><text fill="#000000" font-family="sans-serif" font-size="14" lengthAdjust="spacing" textLength="88.751" x="477.64" y="1012.842">id : INT &#171;PK&#187;</text><line style="stroke:#181818;stroke-width:1;" x1="458.64" x2="631.6214" y1="1020.1438" y2="1020.1438"/><g data-visibility-modifier="PROTECTED_FIELD"><polygon fill="none" points="468.64,1028.7922,472.64,1032.7922,468.64,1036.7922,464.64,1032.7922" style="stroke:#B38D22;stroke-width:1;stroke-linejoin:miter;stroke-miterlimit:10;"/></g><text fill="#000000" font-family="sans-serif" font-size="14" lengthAdjust="spacing" textLength="119.1367" x="477.64" y="1037.1389">userId : INT &#171;FK&#187;</text><g data-visibility-modifier="PROTECTED_FIELD"><polygon fill="none" points="468.64,1045.0891,472.64,1049.0891,468.64,1053.0891,464.64,1049.0891" style="stroke:#B38D22;stroke-width:1;stroke-linejoin:miter;stroke-miterlimit:10;"/></g><text fill="#000000" font-family="sans-serif" font-size="14" lengthAdjust="spacing" textLength="124.2295" x="477.64" y="1053.4357">trackId : INT &#171;FK&#187;</text><line style="stroke:#181818;stroke-width:1;" x1="458.64" x2="631.6214" y1="1060.7375" y2="1060.7375"/><text fill="#000000" font-family="sans-serif" font-size="14" lengthAdjust="spacing" textLength="159.6807" x="463.64" y="1077.7326">created_at : DATETIME</text><line style="stroke:#181818;stroke-width:1;stroke-dasharray:1,2;" x1="458.64" x2="461.64" y1="1093.1828" y2="1093.1828"/><text fill="#000000" font-family="sans-serif" font-size="14" lengthAdjust="spacing" textLength="166.9814" x="461.64" y="1097.5295">UNIQUE(userId, trackId)</text><line style="stroke:#181818;stroke-width:1;stroke-dasharray:1,2;" x1="628.6214" x2="631.6214" y1="1093.1828" y2="1093.1828"/></g><!--class play--><g class="entity" data-qualified-name="play" data-source-line="100" id="ent0008"><rect fill="#F1F1F1" height="139.9297" rx="2.5" ry="2.5" style="stroke:#181818;stroke-width:0.5;" width="174.9814" x="667.64" y="969.55"/><text fill="#000000" font-family="sans-serif" font-size="14" lengthAdjust="spacing" textLength="29.6406" x="740.3104" y="987.5451">play</text><line style="stroke:#181818;stroke-width:0.5;" x1="668.64" x2="841.6214" y1="995.8469" y2="995.8469"/><g data-visibility-modifier="IE_MANDATORY"><ellipse cx="678.64" cy="1009.4953" fill="#000000" rx="3" ry="3" style="stroke:#000000;stroke-width:1;"/></g><text fill="#000000" font-family="sans-serif" font-size="14" lengthAdjust="spacing" textLength="88.751" x="687.64" y="1012.842">id : INT &#171;PK&#187;</text><line style="stroke:#181818;stroke-width:1;" x1="668.64" x2="841.6214" y1="1020.1438" y2="1020.1438"/><g data-visibility-modifier="PROTECTED_FIELD"><polygon fill="none" points="678.64,1028.7922,682.64,1032.7922,678.64,1036.7922,674.64,1032.7922" style="stroke:#B38D22;stroke-width:1;stroke-linejoin:miter;stroke-miterlimit:10;"/></g><text fill="#000000" font-family="sans-serif" font-size="14" lengthAdjust="spacing" textLength="119.1367" x="687.64" y="1037.1389">userId : INT &#171;FK&#187;</text><g data-visibility-modifier="PROTECTED_FIELD"><polygon fill="none" points="678.64,1045.0891,682.64,1049.0891,678.64,1053.0891,674.64,1049.0891" style="stroke:#B38D22;stroke-width:1;stroke-linejoin:miter;stroke-miterlimit:10;"/></g><text fill="#000000" font-family="sans-serif" font-size="14" lengthAdjust="spacing" textLength="124.2295" x="687.64" y="1053.4357">trackId : INT &#171;FK&#187;</text><line style="stroke:#181818;stroke-width:1;" x1="668.64" x2="841.6214" y1="1060.7375" y2="1060.7375"/><text fill="#000000" font-family="sans-serif" font-size="14" lengthAdjust="spacing" textLength="159.6807" x="673.64" y="1077.7326">created_at : DATETIME</text><line style="stroke:#181818;stroke-width:1;stroke-dasharray:1,2;" x1="668.64" x2="671.64" y1="1093.1828" y2="1093.1828"/><text fill="#000000" font-family="sans-serif" font-size="14" lengthAdjust="spacing" textLength="166.9814" x="671.64" y="1097.5295">UNIQUE(userId, trackId)</text><line style="stroke:#181818;stroke-width:1;stroke-dasharray:1,2;" x1="838.6214" x2="841.6214" y1="1093.1828" y2="1093.1828"/></g><!--class repost--><g class="entity" data-qualified-name="repost" data-source-line="110" id="ent0009"><rect fill="#F1F1F1" height="139.9297" rx="2.5" ry="2.5" style="stroke:#181818;stroke-width:0.5;" width="174.9814" x="877.64" y="969.55"/><text fill="#000000" font-family="sans-serif" font-size="14" lengthAdjust="spacing" textLength="44.6045" x="942.8285" y="987.5451">repost</text><line style="stroke:#181818;stroke-width:0.5;" x1="878.64" x2="1051.6214" y1="995.8469" y2="995.8469"/><g data-visibility-modifier="IE_MANDATORY"><ellipse cx="888.64" cy="1009.4953" fill="#000000" rx="3" ry="3" style="stroke:#000000;stroke-width:1;"/></g><text fill="#000000" font-family="sans-serif" font-size="14" lengthAdjust="spacing" textLength="88.751" x="897.64" y="1012.842">id : INT &#171;PK&#187;</text><line style="stroke:#181818;stroke-width:1;" x1="878.64" x2="1051.6214" y1="1020.1438" y2="1020.1438"/><g data-visibility-modifier="PROTECTED_FIELD"><polygon fill="none" points="888.64,1028.7922,892.64,1032.7922,888.64,1036.7922,884.64,1032.7922" style="stroke:#B38D22;stroke-width:1;stroke-linejoin:miter;stroke-miterlimit:10;"/></g><text fill="#000000" font-family="sans-serif" font-size="14" lengthAdjust="spacing" textLength="119.1367" x="897.64" y="1037.1389">userId : INT &#171;FK&#187;</text><g data-visibility-modifier="PROTECTED_FIELD"><polygon fill="none" points="888.64,1045.0891,892.64,1049.0891,888.64,1053.0891,884.64,1049.0891" style="stroke:#B38D22;stroke-width:1;stroke-linejoin:miter;stroke-miterlimit:10;"/></g><text fill="#000000" font-family="sans-serif" font-size="14" lengthAdjust="spacing" textLength="124.2295" x="897.64" y="1053.4357">trackId : INT &#171;FK&#187;</text><line style="stroke:#181818;stroke-width:1;" x1="878.64" x2="1051.6214" y1="1060.7375" y2="1060.7375"/><text fill="#000000" font-family="sans-serif" font-size="14" lengthAdjust="spacing" textLength="159.6807" x="883.64" y="1077.7326">created_at : DATETIME</text><line style="stroke:#181818;stroke-width:1;stroke-dasharray:1,2;" x1="878.64" x2="881.64" y1="1093.1828" y2="1093.1828"/><text fill="#000000" font-family="sans-serif" font-size="14" lengthAdjust="spacing" textLength="166.9814" x="881.64" y="1097.5295">UNIQUE(userId, trackId)</text><line style="stroke:#181818;stroke-width:1;stroke-dasharray:1,2;" x1="1048.6214" x2="1051.6214" y1="1093.1828" y2="1093.1828"/></g><!--class follow--><g class="entity" data-qualified-name="follow" data-source-line="120" id="ent0010"><rect fill="#F1F1F1" height="139.9297" rx="2.5" ry="2.5" style="stroke:#181818;stroke-width:0.5;" width="227.4131" x="880.42" y="374.12"/><text fill="#000000" font-family="sans-serif" font-size="14" lengthAdjust="spacing" textLength="41.2891" x="973.482" y="392.1151">follow</text><line style="stroke:#181818;stroke-width:0.5;" x1="881.42" x2="1106.8331" y1="400.4169" y2="400.4169"/><g data-visibility-modifier="IE_MANDATORY"><ellipse cx="891.42" cy="414.0653" fill="#000000" rx="3" ry="3" style="stroke:#000000;stroke-width:1;"/></g><text fill="#000000" font-family="sans-serif" font-size="14" lengthAdjust="spacing" textLength="88.751" x="900.42" y="417.412">id : INT &#171;PK&#187;</text><line style="stroke:#181818;stroke-width:1;" x1="881.42" x2="1106.8331" y1="424.7138" y2="424.7138"/><g data-visibility-modifier="PROTECTED_FIELD"><polygon fill="none" points="891.42,433.3622,895.42,437.3622,891.42,441.3622,887.42,437.3622" style="stroke:#B38D22;stroke-width:1;stroke-linejoin:miter;stroke-miterlimit:10;"/></g><text fill="#000000" font-family="sans-serif" font-size="14" lengthAdjust="spacing" textLength="144.2588" x="900.42" y="441.7089">followerId : INT &#171;FK&#187;</text><g data-visibility-modifier="PROTECTED_FIELD"><polygon fill="none" points="891.42,449.6591,895.42,453.6591,891.42,457.6591,887.42,453.6591" style="stroke:#B38D22;stroke-width:1;stroke-linejoin:miter;stroke-miterlimit:10;"/></g><text fill="#000000" font-family="sans-serif" font-size="14" lengthAdjust="spacing" textLength="151.5391" x="900.42" y="458.0057">followingId : INT &#171;FK&#187;</text><line style="stroke:#181818;stroke-width:1;" x1="881.42" x2="1106.8331" y1="465.3075" y2="465.3075"/><text fill="#000000" font-family="sans-serif" font-size="14" lengthAdjust="spacing" textLength="159.6807" x="886.42" y="482.3026">created_at : DATETIME</text><line style="stroke:#181818;stroke-width:1;stroke-dasharray:1,2;" x1="881.42" x2="884.42" y1="497.7528" y2="497.7528"/><text fill="#000000" font-family="sans-serif" font-size="14" lengthAdjust="spacing" textLength="219.4131" x="884.42" y="502.0995">UNIQUE(followerId, followingId)</text><line style="stroke:#181818;stroke-width:1;stroke-dasharray:1,2;" x1="1103.8331" x2="1106.8331" y1="497.7528" y2="497.7528"/></g><!--class notification--><g class="entity" data-qualified-name="notification" data-source-line="130" id="ent0011"><rect fill="#F1F1F1" height="180.6719" rx="2.5" ry="2.5" style="stroke:#181818;stroke-width:0.5;" width="171.6807" x="389.29" y="353.75"/><text fill="#000000" font-family="sans-serif" font-size="14" lengthAdjust="spacing" textLength="78.7295" x="435.7656" y="371.7451">notification</text><line style="stroke:#181818;stroke-width:0.5;" x1="390.29" x2="559.9707" y1="380.0469" y2="380.0469"/><g data-visibility-modifier="IE_MANDATORY"><ellipse cx="400.29" cy="393.6953" fill="#000000" rx="3" ry="3" style="stroke:#000000;stroke-width:1;"/></g><text fill="#000000" font-family="sans-serif" font-size="14" lengthAdjust="spacing" textLength="88.751" x="409.29" y="397.042">id : INT &#171;PK&#187;</text><line style="stroke:#181818;stroke-width:1;" x1="390.29" x2="559.9707" y1="404.3438" y2="404.3438"/><g data-visibility-modifier="PROTECTED_FIELD"><polygon fill="none" points="400.29,412.9922,404.29,416.9922,400.29,420.9922,396.29,416.9922" style="stroke:#B38D22;stroke-width:1;stroke-linejoin:miter;stroke-miterlimit:10;"/></g><text fill="#000000" font-family="sans-serif" font-size="14" lengthAdjust="spacing" textLength="119.1367" x="409.29" y="421.3389">userId : INT &#171;FK&#187;</text><g data-visibility-modifier="PROTECTED_FIELD"><polygon fill="none" points="400.29,429.2891,404.29,433.2891,400.29,437.2891,396.29,433.2891" style="stroke:#B38D22;stroke-width:1;stroke-linejoin:miter;stroke-miterlimit:10;"/></g><text fill="#000000" font-family="sans-serif" font-size="14" lengthAdjust="spacing" textLength="124.6875" x="409.29" y="437.6357">actorId : INT &#171;FK&#187;</text><line style="stroke:#181818;stroke-width:1;" x1="390.29" x2="559.9707" y1="444.9375" y2="444.9375"/><text fill="#000000" font-family="sans-serif" font-size="14" lengthAdjust="spacing" textLength="113.3809" x="395.29" y="461.9326">type : VARCHAR</text><text fill="#000000" font-family="sans-serif" font-size="14" lengthAdjust="spacing" textLength="85.415" x="395.29" y="478.2295">trackId : INT</text><text fill="#000000" font-family="sans-serif" font-size="14" lengthAdjust="spacing" textLength="116.2998" x="395.29" y="494.5264">commentId : INT</text><text fill="#000000" font-family="sans-serif" font-size="14" lengthAdjust="spacing" textLength="100.0508" x="395.29" y="510.8232">isRead : BOOL</text><text fill="#000000" font-family="sans-serif" font-size="14" lengthAdjust="spacing" textLength="159.6807" x="395.29" y="527.1201">created_at : DATETIME</text></g><!--link user to track--><g class="link" data-entity-1="ent0001" data-entity-2="ent0002" data-link-type="crowfoot" data-source-line="144" id="lnk12"><path codeLine="144" d="M596.56,301.99 C596.56,392.5 596.56,483.35 596.56,576.11" fill="none" id="user-track" style="stroke:#181818;stroke-width:1;"/><line style="stroke:#181818;stroke-width:1;" x1="592.56" x2="600.56" y1="297.99" y2="297.99"/><line style="stroke:#181818;stroke-width:1;" x1="592.56" x2="600.56" y1="300.99" y2="300.99"/><line style="stroke:#181818;stroke-width:1;" x1="596.56" x2="596.56" y1="301.99" y2="293.99"/><line style="stroke:#181818;stroke-width:1;" x1="596.56" x2="602.56" y1="586.11" y2="594.11"/><line style="stroke:#181818;stroke-width:1;" x1="596.56" x2="590.56" y1="586.11" y2="594.11"/><line style="stroke:#181818;stroke-width:1;" x1="596.56" x2="596.56" y1="586.11" y2="594.11"/><ellipse cx="596.56" cy="580.11" fill="none" rx="4" ry="4" style="stroke:#181818;stroke-width:1;"/><text fill="#000000" font-family="sans-serif" font-size="13" lengthAdjust="spacing" textLength="33.5981" x="562.56" y="440.1169">owns</text></g><!--link user to playlist--><g class="link" data-entity-1="ent0001" data-entity-2="ent0003" data-link-type="crowfoot" data-source-line="145" id="lnk13"><path codeLine="145" d="M478,79.48 C324.89,79.48 97.13,79.48 97.13,79.48 C97.13,79.48 97.13,496.68 97.13,665.83" fill="none" id="user-playlist" style="stroke:#181818;stroke-width:1;"/><line style="stroke:#181818;stroke-width:1;" x1="482" x2="482" y1="75.48" y2="83.48"/><line style="stroke:#181818;stroke-width:1;" x1="479" x2="479" y1="75.48" y2="83.48"/><line style="stroke:#181818;stroke-width:1;" x1="478" x2="486" y1="79.48" y2="79.48"/><line style="stroke:#181818;stroke-width:1;" x1="97.13" x2="103.13" y1="675.83" y2="683.83"/><line style="stroke:#181818;stroke-width:1;" x1="97.13" x2="91.13" y1="675.83" y2="683.83"/><line style="stroke:#181818;stroke-width:1;" x1="97.13" x2="97.13" y1="675.83" y2="683.83"/><ellipse cx="97.13" cy="669.83" fill="none" rx="4" ry="4" style="stroke:#181818;stroke-width:1;"/></g><!--link user to comment--><g class="link" data-entity-1="ent0001" data-entity-2="ent0005" data-link-type="crowfoot" data-source-line="146" id="lnk14"><path codeLine="146" d="M477.86,222.48 C385.83,222.48 286.01,222.48 286.01,222.48 C286.01,222.48 286.01,745.79 286.01,947.2" fill="none" id="user-comment" style="stroke:#181818;stroke-width:1;"/><line style="stroke:#181818;stroke-width:1;" x1="481.86" x2="481.86" y1="218.48" y2="226.48"/><line style="stroke:#181818;stroke-width:1;" x1="478.86" x2="478.86" y1="218.48" y2="226.48"/><line style="stroke:#181818;stroke-width:1;" x1="477.86" x2="485.86" y1="222.48" y2="222.48"/><line style="stroke:#181818;stroke-width:1;" x1="286.01" x2="292.01" y1="957.2" y2="965.2"/><line style="stroke:#181818;stroke-width:1;" x1="286.01" x2="280.01" y1="957.2" y2="965.2"/><line style="stroke:#181818;stroke-width:1;" x1="286.01" x2="286.01" y1="957.2" y2="965.2"/><ellipse cx="286.01" cy="951.2" fill="none" rx="4" ry="4" style="stroke:#181818;stroke-width:1;"/></g><!--link user to like--><g class="link" data-entity-1="ent0001" data-entity-2="ent0007" data-link-type="crowfoot" data-source-line="147" id="lnk15"><path codeLine="147" d="M650.13,301.88 C650.13,553.65 650.13,1040.48 650.13,1040.48 C650.13,1040.48 661.15,1040.48 650.79,1040.48" fill="none" id="user-like" style="stroke:#181818;stroke-width:1;"/><line style="stroke:#181818;stroke-width:1;" x1="646.13" x2="654.13" y1="297.88" y2="297.88"/><line style="stroke:#181818;stroke-width:1;" x1="646.13" x2="654.13" y1="300.88" y2="300.88"/><line style="stroke:#181818;stroke-width:1;" x1="650.13" x2="650.13" y1="301.88" y2="293.88"/><line style="stroke:#181818;stroke-width:1;" x1="640.79" x2="632.79" y1="1040.48" y2="1046.48"/><line style="stroke:#181818;stroke-width:1;" x1="640.79" x2="632.79" y1="1040.48" y2="1034.48"/><line style="stroke:#181818;stroke-width:1;" x1="640.79" x2="632.79" y1="1040.48" y2="1040.48"/><ellipse cx="646.79" cy="1040.48" fill="none" rx="4" ry="4" style="stroke:#181818;stroke-width:1;"/></g><!--link user to play--><g class="link" data-entity-1="ent0001" data-entity-2="ent0008" data-link-type="crowfoot" data-source-line="148" id="lnk16"><path codeLine="148" d="M692.4,302.22 C692.4,495.62 692.4,805.97 692.4,951.3" fill="none" id="user-play" style="stroke:#181818;stroke-width:1;"/><line style="stroke:#181818;stroke-width:1;" x1="688.4" x2="696.4" y1="298.22" y2="298.22"/><line style="stroke:#181818;stroke-width:1;" x1="688.4" x2="696.4" y1="301.22" y2="301.22"/><line style="stroke:#181818;stroke-width:1;" x1="692.4" x2="692.4" y1="302.22" y2="294.22"/><line style="stroke:#181818;stroke-width:1;" x1="692.4" x2="698.4" y1="961.3" y2="969.3"/><line style="stroke:#181818;stroke-width:1;" x1="692.4" x2="686.4" y1="961.3" y2="969.3"/><line style="stroke:#181818;stroke-width:1;" x1="692.4" x2="692.4" y1="961.3" y2="969.3"/><ellipse cx="692.4" cy="955.3" fill="none" rx="4" ry="4" style="stroke:#181818;stroke-width:1;"/></g><!--link user to repost--><g class="link" data-entity-1="ent0001" data-entity-2="ent0009" data-link-type="crowfoot" data-source-line="149" id="lnk17"><path codeLine="149" d="M704.78,302.08 C704.78,456.63 704.78,672.48 704.78,672.48 C704.78,672.48 995.22,672.48 995.22,672.48 C995.22,672.48 995.22,844.6 995.22,951.18" fill="none" id="user-repost" style="stroke:#181818;stroke-width:1;"/><line style="stroke:#181818;stroke-width:1;" x1="700.78" x2="708.78" y1="298.08" y2="298.08"/><line style="stroke:#181818;stroke-width:1;" x1="700.78" x2="708.78" y1="301.08" y2="301.08"/><line style="stroke:#181818;stroke-width:1;" x1="704.78" x2="704.78" y1="302.08" y2="294.08"/><line style="stroke:#181818;stroke-width:1;" x1="995.22" x2="1001.22" y1="961.18" y2="969.18"/><line style="stroke:#181818;stroke-width:1;" x1="995.22" x2="989.22" y1="961.18" y2="969.18"/><line style="stroke:#181818;stroke-width:1;" x1="995.22" x2="995.22" y1="961.18" y2="969.18"/><ellipse cx="995.22" cy="955.18" fill="none" rx="4" ry="4" style="stroke:#181818;stroke-width:1;"/></g><!--link user to comment_like--><g class="link" data-entity-1="ent0001" data-entity-2="ent0006" data-link-type="crowfoot" data-source-line="150" id="lnk18"><path codeLine="150" d="M477.92,150.48 C354.19,150.48 193.48,150.48 193.48,150.48 C193.48,150.48 193.48,913.33 193.48,1155.06" fill="none" id="user-comment_like" style="stroke:#181818;stroke-width:1;"/><line style="stroke:#181818;stroke-width:1;" x1="481.92" x2="481.92" y1="146.48" y2="154.48"/><line style="stroke:#181818;stroke-width:1;" x1="478.92" x2="478.92" y1="146.48" y2="154.48"/><line style="stroke:#181818;stroke-width:1;" x1="477.92" x2="485.92" y1="150.48" y2="150.48"/><line style="stroke:#181818;stroke-width:1;" x1="193.48" x2="199.48" y1="1165.06" y2="1173.06"/><line style="stroke:#181818;stroke-width:1;" x1="193.48" x2="187.48" y1="1165.06" y2="1173.06"/><line style="stroke:#181818;stroke-width:1;" x1="193.48" x2="193.48" y1="1165.06" y2="1173.06"/><ellipse cx="193.48" cy="1159.06" fill="none" rx="4" ry="4" style="stroke:#181818;stroke-width:1;"/></g><!--link track to comment--><g class="link" data-entity-1="ent0002" data-entity-2="ent0005" data-link-type="crowfoot" data-source-line="152" id="lnk19"><path codeLine="152" d="M383.22,913.75 C383.22,934.36 383.22,928.68 383.22,947.01" fill="none" id="track-comment" style="stroke:#181818;stroke-width:1;"/><line style="stroke:#181818;stroke-width:1;" x1="379.22" x2="387.22" y1="909.75" y2="909.75"/><line style="stroke:#181818;stroke-width:1;" x1="379.22" x2="387.22" y1="912.75" y2="912.75"/><line style="stroke:#181818;stroke-width:1;" x1="383.22" x2="383.22" y1="913.75" y2="905.75"/><line style="stroke:#181818;stroke-width:1;" x1="383.22" x2="389.22" y1="957.01" y2="965.01"/><line style="stroke:#181818;stroke-width:1;" x1="383.22" x2="377.22" y1="957.01" y2="965.01"/><line style="stroke:#181818;stroke-width:1;" x1="383.22" x2="383.22" y1="957.01" y2="965.01"/><ellipse cx="383.22" cy="951.01" fill="none" rx="4" ry="4" style="stroke:#181818;stroke-width:1;"/></g><!--link track to like--><g class="link" data-entity-1="ent0002" data-entity-2="ent0007" data-link-type="crowfoot" data-source-line="153" id="lnk20"><path codeLine="153" d="M544.9,913.75 C544.9,935.97 544.9,931.84 544.9,951.26" fill="none" id="track-like" style="stroke:#181818;stroke-width:1;"/><line style="stroke:#181818;stroke-width:1;" x1="540.9" x2="548.9" y1="909.75" y2="909.75"/><line style="stroke:#181818;stroke-width:1;" x1="540.9" x2="548.9" y1="912.75" y2="912.75"/><line style="stroke:#181818;stroke-width:1;" x1="544.9" x2="544.9" y1="913.75" y2="905.75"/><line style="stroke:#181818;stroke-width:1;" x1="544.9" x2="550.9" y1="961.26" y2="969.26"/><line style="stroke:#181818;stroke-width:1;" x1="544.9" x2="538.9" y1="961.26" y2="969.26"/><line style="stroke:#181818;stroke-width:1;" x1="544.9" x2="544.9" y1="961.26" y2="969.26"/><ellipse cx="544.9" cy="955.26" fill="none" rx="4" ry="4" style="stroke:#181818;stroke-width:1;"/></g><!--link track to play--><g class="link" data-entity-1="ent0002" data-entity-2="ent0008" data-link-type="crowfoot" data-source-line="154" id="lnk21"><path codeLine="154" d="M640.45,828.48 C667.62,828.48 680.02,828.48 680.02,828.48 C680.02,828.48 680.02,889.85 680.02,951.24" fill="none" id="track-play" style="stroke:#181818;stroke-width:1;"/><line style="stroke:#181818;stroke-width:1;" x1="636.45" x2="636.45" y1="832.48" y2="824.48"/><line style="stroke:#181818;stroke-width:1;" x1="639.45" x2="639.45" y1="832.48" y2="824.48"/><line style="stroke:#181818;stroke-width:1;" x1="640.45" x2="632.45" y1="828.48" y2="828.48"/><line style="stroke:#181818;stroke-width:1;" x1="680.02" x2="686.02" y1="961.24" y2="969.24"/><line style="stroke:#181818;stroke-width:1;" x1="680.02" x2="674.02" y1="961.24" y2="969.24"/><line style="stroke:#181818;stroke-width:1;" x1="680.02" x2="680.02" y1="961.24" y2="969.24"/><ellipse cx="680.02" cy="955.24" fill="none" rx="4" ry="4" style="stroke:#181818;stroke-width:1;"/></g><!--link track to repost--><g class="link" data-entity-1="ent0002" data-entity-2="ent0009" data-link-type="crowfoot" data-source-line="155" id="lnk22"><path codeLine="155" d="M640.65,750.48 C770.16,750.48 937.82,750.48 937.82,750.48 C937.82,750.48 937.82,865.62 937.82,951.18" fill="none" id="track-repost" style="stroke:#181818;stroke-width:1;"/><line style="stroke:#181818;stroke-width:1;" x1="636.65" x2="636.65" y1="754.48" y2="746.48"/><line style="stroke:#181818;stroke-width:1;" x1="639.65" x2="639.65" y1="754.48" y2="746.48"/><line style="stroke:#181818;stroke-width:1;" x1="640.65" x2="632.65" y1="750.48" y2="750.48"/><line style="stroke:#181818;stroke-width:1;" x1="937.82" x2="943.82" y1="961.18" y2="969.18"/><line style="stroke:#181818;stroke-width:1;" x1="937.82" x2="931.82" y1="961.18" y2="969.18"/><line style="stroke:#181818;stroke-width:1;" x1="937.82" x2="937.82" y1="961.18" y2="969.18"/><ellipse cx="937.82" cy="955.18" fill="none" rx="4" ry="4" style="stroke:#181818;stroke-width:1;"/></g><!--link track to playlist_track--><g class="link" data-entity-1="ent0002" data-entity-2="ent0004" data-link-type="crowfoot" data-source-line="156" id="lnk23"><path codeLine="156" d="M353.63,861.48 C245.35,861.48 119.6,861.48 119.6,861.48 C119.6,861.48 119.6,922.91 119.6,975.66" fill="none" id="track-playlist_track" style="stroke:#181818;stroke-width:1;"/><line style="stroke:#181818;stroke-width:1;" x1="357.63" x2="357.63" y1="857.48" y2="865.48"/><line style="stroke:#181818;stroke-width:1;" x1="354.63" x2="354.63" y1="857.48" y2="865.48"/><line style="stroke:#181818;stroke-width:1;" x1="353.63" x2="361.63" y1="861.48" y2="861.48"/><line style="stroke:#181818;stroke-width:1;" x1="119.6" x2="125.6" y1="985.66" y2="993.66"/><line style="stroke:#181818;stroke-width:1;" x1="119.6" x2="113.6" y1="985.66" y2="993.66"/><line style="stroke:#181818;stroke-width:1;" x1="119.6" x2="119.6" y1="985.66" y2="993.66"/><ellipse cx="119.6" cy="979.66" fill="none" rx="4" ry="4" style="stroke:#181818;stroke-width:1;"/></g><!--link playlist to playlist_track--><g class="link" data-entity-1="ent0003" data-entity-2="ent0004" data-link-type="crowfoot" data-source-line="158" id="lnk24"><path codeLine="158" d="M64.66,824.02 C64.66,878.27 64.66,927.7 64.66,975.56" fill="none" id="playlist-playlist_track" style="stroke:#181818;stroke-width:1;"/><line style="stroke:#181818;stroke-width:1;" x1="60.66" x2="68.66" y1="820.02" y2="820.02"/><line style="stroke:#181818;stroke-width:1;" x1="60.66" x2="68.66" y1="823.02" y2="823.02"/><line style="stroke:#181818;stroke-width:1;" x1="64.66" x2="64.66" y1="824.02" y2="816.02"/><line style="stroke:#181818;stroke-width:1;" x1="64.66" x2="70.66" y1="985.56" y2="993.56"/><line style="stroke:#181818;stroke-width:1;" x1="64.66" x2="58.66" y1="985.56" y2="993.56"/><line style="stroke:#181818;stroke-width:1;" x1="64.66" x2="64.66" y1="985.56" y2="993.56"/><ellipse cx="64.66" cy="979.56" fill="none" rx="4" ry="4" style="stroke:#181818;stroke-width:1;"/></g><!--link comment to comment_like--><g class="link" data-entity-1="ent0005" data-entity-2="ent0006" data-link-type="crowfoot" data-source-line="160" id="lnk25"><path codeLine="160" d="M226.02,1122.03 C226.02,1141.38 226.02,1136.15 226.02,1155.27" fill="none" id="comment-comment_like" style="stroke:#181818;stroke-width:1;"/><line style="stroke:#181818;stroke-width:1;" x1="222.02" x2="230.02" y1="1118.03" y2="1118.03"/><line style="stroke:#181818;stroke-width:1;" x1="222.02" x2="230.02" y1="1121.03" y2="1121.03"/><line style="stroke:#181818;stroke-width:1;" x1="226.02" x2="226.02" y1="1122.03" y2="1114.03"/><line style="stroke:#181818;stroke-width:1;" x1="226.02" x2="232.02" y1="1165.27" y2="1173.27"/><line style="stroke:#181818;stroke-width:1;" x1="226.02" x2="220.02" y1="1165.27" y2="1173.27"/><line style="stroke:#181818;stroke-width:1;" x1="226.02" x2="226.02" y1="1165.27" y2="1173.27"/><ellipse cx="226.02" cy="1159.27" fill="none" rx="4" ry="4" style="stroke:#181818;stroke-width:1;"/></g><!--link comment to comment--><g class="link" data-entity-1="ent0005" data-entity-2="ent0005" data-link-type="crowfoot" data-source-line="161" id="lnk26"><path codeLine="161" d="M247.96,957.01 C247.96,940.34 247.96,935.48 247.96,935.48 C247.96,935.48 201.7,935.48 201.7,935.48 C201.7,935.48 201.7,1144.48 201.7,1144.48 C201.7,1144.48 217.97,1144.48 217.97,1144.48 C217.97,1144.48 217.97,1149.07 217.97,1131.84" fill="none" id="comment-comment" style="stroke:#181818;stroke-width:1;"/><line style="stroke:#181818;stroke-width:1;" x1="251.96" x2="243.96" y1="961.01" y2="961.01"/><line style="stroke:#181818;stroke-width:1;" x1="251.96" x2="243.96" y1="958.01" y2="958.01"/><line style="stroke:#181818;stroke-width:1;" x1="247.96" x2="247.96" y1="957.01" y2="965.01"/><line style="stroke:#181818;stroke-width:1;" x1="217.97" x2="211.97" y1="1121.84" y2="1113.84"/><line style="stroke:#181818;stroke-width:1;" x1="217.97" x2="223.97" y1="1121.84" y2="1113.84"/><line style="stroke:#181818;stroke-width:1;" x1="217.97" x2="217.97" y1="1121.84" y2="1113.84"/><ellipse cx="217.97" cy="1127.84" fill="none" rx="4" ry="4" style="stroke:#181818;stroke-width:1;"/><text fill="#000000" font-family="sans-serif" font-size="13" lengthAdjust="spacing" textLength="54.9834" x="141.7" y="1016.6069">parentId</text></g><!--link user to follow--><g class="link" data-entity-1="ent0001" data-entity-2="ent0010" data-link-type="crowfoot" data-source-line="163" id="lnk27"><path codeLine="163" d="M729.55,301.87 C729.55,366.9 729.55,421.48 729.55,421.48 C729.55,421.48 790.39,421.48 862,421.48" fill="none" id="user-follow" style="stroke:#181818;stroke-width:1;"/><line style="stroke:#181818;stroke-width:1;" x1="725.55" x2="733.55" y1="297.87" y2="297.87"/><line style="stroke:#181818;stroke-width:1;" x1="725.55" x2="733.55" y1="300.87" y2="300.87"/><line style="stroke:#181818;stroke-width:1;" x1="729.55" x2="729.55" y1="301.87" y2="293.87"/><line style="stroke:#181818;stroke-width:1;" x1="872" x2="880" y1="421.48" y2="415.48"/><line style="stroke:#181818;stroke-width:1;" x1="872" x2="880" y1="421.48" y2="427.48"/><line style="stroke:#181818;stroke-width:1;" x1="872" x2="880" y1="421.48" y2="421.48"/><ellipse cx="866" cy="421.48" fill="none" rx="4" ry="4" style="stroke:#181818;stroke-width:1;"/><text fill="#000000" font-family="sans-serif" font-size="13" lengthAdjust="spacing" textLength="51.6826" x="688.97" y="417.5469">follower</text></g><!--link user to follow--><g class="link" data-entity-1="ent0001" data-entity-2="ent0010" data-link-type="crowfoot" data-source-line="164" id="lnk28"><path codeLine="164" d="M717.16,302.08 C717.16,385.99 717.16,467.48 717.16,467.48 C717.16,467.48 785.89,467.48 862.28,467.48" fill="none" id="user-follow-1" style="stroke:#181818;stroke-width:1;"/><line style="stroke:#181818;stroke-width:1;" x1="713.16" x2="721.16" y1="298.08" y2="298.08"/><line style="stroke:#181818;stroke-width:1;" x1="713.16" x2="721.16" y1="301.08" y2="301.08"/><line style="stroke:#181818;stroke-width:1;" x1="717.16" x2="717.16" y1="302.08" y2="294.08"/><line style="stroke:#181818;stroke-width:1;" x1="872.28" x2="880.28" y1="467.48" y2="461.48"/><line style="stroke:#181818;stroke-width:1;" x1="872.28" x2="880.28" y1="467.48" y2="473.48"/><line style="stroke:#181818;stroke-width:1;" x1="872.28" x2="880.28" y1="467.48" y2="467.48"/><ellipse cx="866.28" cy="467.48" fill="none" rx="4" ry="4" style="stroke:#181818;stroke-width:1;"/><text fill="#000000" font-family="sans-serif" font-size="13" lengthAdjust="spacing" textLength="58.4429" x="658.16" y="458.4069">following</text></g><!--link user to notification--><g class="link" data-entity-1="ent0001" data-entity-2="ent0011" data-link-type="crowfoot" data-source-line="166" id="lnk29"><path codeLine="166" d="M511.21,302.22 C511.21,322.43 511.21,316.7 511.21,335.53" fill="none" id="user-notification" style="stroke:#181818;stroke-width:1;"/><line style="stroke:#181818;stroke-width:1;" x1="507.21" x2="515.21" y1="298.22" y2="298.22"/><line style="stroke:#181818;stroke-width:1;" x1="507.21" x2="515.21" y1="301.22" y2="301.22"/><line style="stroke:#181818;stroke-width:1;" x1="511.21" x2="511.21" y1="302.22" y2="294.22"/><line style="stroke:#181818;stroke-width:1;" x1="511.21" x2="517.21" y1="345.53" y2="353.53"/><line style="stroke:#181818;stroke-width:1;" x1="511.21" x2="505.21" y1="345.53" y2="353.53"/><line style="stroke:#181818;stroke-width:1;" x1="511.21" x2="511.21" y1="345.53" y2="353.53"/><ellipse cx="511.21" cy="339.53" fill="none" rx="4" ry="4" style="stroke:#181818;stroke-width:1;"/><text fill="#000000" font-family="sans-serif" font-size="13" lengthAdjust="spacing" textLength="57.3003" x="453.21" y="319.9469">recipient</text></g><!--link user to notification--><g class="link" data-entity-1="ent0001" data-entity-2="ent0011" data-link-type="crowfoot" data-source-line="167" id="lnk30"><path codeLine="167" d="M536.09,302.22 C536.09,322.43 536.09,316.7 536.09,335.53" fill="none" id="user-notification-1" style="stroke:#181818;stroke-width:1;"/><line style="stroke:#181818;stroke-width:1;" x1="532.09" x2="540.09" y1="298.22" y2="298.22"/><line style="stroke:#181818;stroke-width:1;" x1="532.09" x2="540.09" y1="301.22" y2="301.22"/><line style="stroke:#181818;stroke-width:1;" x1="536.09" x2="536.09" y1="302.22" y2="294.22"/><line style="stroke:#181818;stroke-width:1;" x1="536.09" x2="542.09" y1="345.53" y2="353.53"/><line style="stroke:#181818;stroke-width:1;" x1="536.09" x2="530.09" y1="345.53" y2="353.53"/><line style="stroke:#181818;stroke-width:1;" x1="536.09" x2="536.09" y1="345.53" y2="353.53"/><ellipse cx="536.09" cy="339.53" fill="none" rx="4" ry="4" style="stroke:#181818;stroke-width:1;"/><text fill="#000000" font-family="sans-serif" font-size="13" lengthAdjust="spacing" textLength="33.5093" x="502.09" y="336.9469">actor</text></g><!--link notification to track--><g class="link" data-entity-1="ent0011" data-entity-2="ent0002" data-link-type="dependency" data-source-line="169" id="lnk31"><path codeLine="169" d="M475.13,534.62 C475.13,553.38 475.13,568.65 475.13,588.99" fill="none" id="notification-to-track" style="stroke:#181818;stroke-width:1;stroke-dasharray:7,7;"/><polygon fill="#181818" points="475.13,593.99,479.13,584.99,475.13,588.99,471.13,584.99,475.13,593.99" style="stroke:#181818;stroke-width:1;stroke-linejoin:miter;stroke-miterlimit:10;"/><text fill="#000000" font-family="sans-serif" font-size="13" lengthAdjust="spacing" textLength="45.1699" x="429.13" y="560.3669">trackId</text></g><!--link notification to comment--><g class="link" data-entity-1="ent0011" data-entity-2="ent0005" data-link-type="dependency" data-source-line="170" id="lnk32"><path codeLine="170" d="M389,444.48 C355.08,444.48 324.06,444.48 324.06,444.48 C324.06,444.48 324.06,800.39 324.06,960.05" fill="none" id="notification-to-comment" style="stroke:#181818;stroke-width:1;stroke-dasharray:7,7;"/><polygon fill="#181818" points="324.06,965.05,328.06,956.05,324.06,960.05,320.06,956.05,324.06,965.05" style="stroke:#181818;stroke-width:1;stroke-linejoin:miter;stroke-miterlimit:10;"/><text fill="#000000" font-family="sans-serif" font-size="13" lengthAdjust="spacing" textLength="73.8486" x="250.06" y="668.3569">commentId</text></g><?plantuml-src pLRTRX915BxVfvYq5sqDSANLaAO9nKM9bYhInZiox0vbmh2pcHbAiJKn6gzgugjWDD6eVGTu8y_CBkmCFrRfJI5XPxzpzfnlp_bc3bl8h-V7tyO_ngFnryax-FqDtn4QVu7bzyaL0jjeV3s-dbnDFg8QELUlU3yAqJQWFoVl9n_W-clo2Jn6ayyxNeU610LK18nuiakZ60lSGun6H0rZWhXG7MuPP0U7V42ZKzJ6JDgFj73GFHKwLPapBj1cnNmi3n8fgeRemaFeOC7vVcKNdC72HKX4YZuuU5Ykb00j2S47ARZhx_gFIjvRpqi3RlGb4Hi8IwGN9luzH4DKHDLQ0-tjlNYslmzOFWy_RIgagk4U0Ml3Vzq0YE5v9A91Dt8GqiEKPRSnbd80H3D4SART_ThnuJQZKf68Y1p2Gi4Qhc6FHZlWXi-mmY9xh4LvTaFb2H6qJOcEUt1qzDnW9HDZqNAcaM6PXphlIQbUVbggR-_kp2p-UKm5aVg1wXCe11W2GR0YOHChG1-N6dwZUkW3te_39RXLO2MWNwR2PlNt4c-QDbGpOyKoGZnc4GOa938GD5QKHmv-IYBXUhQ1VLzexMNrYtj96jDQHfenLXtdeO13EHRXCoffYpBzTcdNudwBqI27Oa6XIIIdzq1NbrCGHh0aJLqZjsunmqFP3436QiP2qZV4hZcL5KFRRjtQVT09jRfCAwOtj-X6AdAhMhTbrioaua8tiPnwBpBTJ4GtRx2I1xpNWxN9cgxNAygAL8OV5X3MiUIG9AnjQHlEsaoQoqkvoBh9Q9VOr0smBlyqnef-hsfleO2EQzMNn_vs4ZUNnTa1eyrwnlOsB5TK-Jyvfb7c6MebpGHu9naA4lDq4oVBEycopHdZ0yCoMTx4Cl5QpZInmTczDjiiUiwEDiywuWe6PO3rF37SRM3TEkD0yPKJJVzDiizGfobc0ZbRqio4Ei4tpWDugIr8aS-ZEc66lZItdlcNStcPp_EBT1vddoBYWqWwBjEJrG5JKWwcT_J2amwGg7LP87DeULv2Pow70ne_1p5P72HDi-2LJHFFcqs_5VRf75X6SxbjLi7fKUyvBvhk0RlKKqd-cn_8rOteA3Fn52IWCPrlp197eqZFSoo5mhwZX-9KYejkzYiNCuN-0G00?></g></svg>