<svg xmlns="http://www.w3.org/2000/svg" xmlns:xlink="http://www.w3.org/1999/xlink" contentStyleType="text/css" data-diagram-type="DESCRIPTION" height="1079px" preserveAspectRatio="none" style="width:589px;height:1079px;background:#FFFFFF;" version="1.1" viewBox="0 0 589 1079" width="589px" zoomAndPan="magnify"><?plantuml 1.2026.7beta1?><defs/><g><!--cluster NextSound System--><g class="cluster" data-qualified-name="NextSound System" data-source-line="20" id="ent0007"><rect fill="none" height="1058" rx="2.5" ry="2.5" style="stroke:#181818;stroke-width:1;" width="266.84" x="308.46" y="7"/><text fill="#000000" font-family="sans-serif" font-size="14" font-weight="700" lengthAdjust="spacing" textLength="149.7822" x="366.9889" y="21.9951">NextSound System</text></g><!--entity UC_search--><g class="entity" data-qualified-name="NextSound System.UC_search" data-source-line="21" id="ent0008"><ellipse cx="441.88" cy="57.998" fill="#F4F6FF" rx="67.39" ry="15.878" style="stroke:#5B7CFA;stroke-width:0.5;"/><text fill="#000000" font-family="sans-serif" font-size="14" lengthAdjust="spacing" textLength="99.7227" x="392.0187" y="62.6464">&#1055;&#1086;&#1080;&#1089;&#1082; &#1090;&#1088;&#1077;&#1082;&#1086;&#1074;</text></g><!--entity UC_play--><g class="entity" data-qualified-name="NextSound System.UC_play" data-source-line="22" id="ent0009"><ellipse cx="441.8757" cy="130.0011" fill="#F4F6FF" rx="95.3057" ry="21.4611" style="stroke:#5B7CFA;stroke-width:0.5;"/><text fill="#000000" font-family="sans-serif" font-size="14" lengthAdjust="spacing" textLength="165.6553" x="359.0481" y="134.6496">&#1055;&#1088;&#1086;&#1089;&#1083;&#1091;&#1096;&#1080;&#1074;&#1072;&#1085;&#1080;&#1077; &#1090;&#1088;&#1077;&#1082;&#1072;</text></g><!--entity UC_plm--><g class="entity" data-qualified-name="NextSound System.UC_plm" data-source-line="23" id="ent0010"><ellipse cx="441.8819" cy="209.0004" fill="#F4F6FF" rx="102.3019" ry="22.8604" style="stroke:#5B7CFA;stroke-width:0.5;"/><text fill="#000000" font-family="sans-serif" font-size="14" lengthAdjust="spacing" textLength="181.1182" x="351.3228" y="213.6488">&#1059;&#1087;&#1088;&#1072;&#1074;&#1083;&#1077;&#1085;&#1080;&#1077; &#1087;&#1083;&#1077;&#1081;&#1083;&#1080;&#1089;&#1090;&#1086;&#1084;</text></g><!--entity UC_plc--><g class="entity" data-qualified-name="NextSound System.UC_plc" data-source-line="24" id="ent0011"><ellipse cx="441.8804" cy="287.0021" fill="#F4F6FF" rx="89.9604" ry="20.3921" style="stroke:#5B7CFA;stroke-width:0.5;"/><text fill="#000000" font-family="sans-serif" font-size="14" lengthAdjust="spacing" textLength="153.6514" x="365.0547" y="291.6505">&#1057;&#1086;&#1079;&#1076;&#1072;&#1085;&#1080;&#1077; &#1087;&#1083;&#1077;&#1081;&#1083;&#1080;&#1089;&#1090;&#1072;</text></g><!--entity UC_up--><g class="entity" data-qualified-name="NextSound System.UC_up" data-source-line="25" id="ent0012"><ellipse cx="441.8826" cy="490.9985" fill="#F4F6FF" rx="72.9426" ry="16.9885" style="stroke:#5B7CFA;stroke-width:0.5;"/><text fill="#000000" font-family="sans-serif" font-size="14" lengthAdjust="spacing" textLength="113.7021" x="385.0315" y="495.647">&#1047;&#1072;&#1075;&#1088;&#1091;&#1079;&#1082;&#1072; &#1090;&#1088;&#1077;&#1082;&#1072;</text></g><!--entity UC_del--><g class="entity" data-qualified-name="NextSound System.UC_del" data-source-line="26" id="ent0013"><ellipse cx="441.8774" cy="559.9995" fill="#F4F6FF" rx="74.8474" ry="17.3695" style="stroke:#5B7CFA;stroke-width:0.5;"/><text fill="#000000" font-family="sans-serif" font-size="14" lengthAdjust="spacing" textLength="118.3574" x="382.6987" y="564.6479">&#1059;&#1076;&#1072;&#1083;&#1077;&#1085;&#1080;&#1077; &#1090;&#1088;&#1077;&#1082;&#1072;</text></g><!--entity UC_edit--><g class="entity" data-qualified-name="NextSound System.UC_edit" data-source-line="27" id="ent0014"><ellipse cx="441.88" cy="634" fill="#F4F6FF" rx="96.95" ry="21.79" style="stroke:#5B7CFA;stroke-width:0.5;"/><text fill="#000000" font-family="sans-serif" font-size="14" lengthAdjust="spacing" textLength="169.3125" x="357.2238" y="638.6484">&#1056;&#1077;&#1076;&#1072;&#1082;&#1090;&#1080;&#1088;&#1086;&#1074;&#1072;&#1085;&#1080;&#1077; &#1090;&#1088;&#1077;&#1082;&#1072;</text></g><!--entity UC_reg--><g class="entity" data-qualified-name="NextSound System.UC_reg" data-source-line="28" id="ent0015"><ellipse cx="441.8846" cy="424.0009" fill="#F4F6FF" rx="65.1546" ry="15.4309" style="stroke:#5B7CFA;stroke-width:0.5;"/><text fill="#000000" font-family="sans-serif" font-size="14" lengthAdjust="spacing" textLength="93.8779" x="394.9456" y="428.6494">&#1056;&#1077;&#1075;&#1080;&#1089;&#1090;&#1088;&#1072;&#1094;&#1080;&#1103;</text></g><!--entity UC_auth--><g class="entity" data-qualified-name="NextSound System.UC_auth" data-source-line="29" id="ent0016"><ellipse cx="441.8802" cy="358.002" fill="#F4F6FF" rx="65.8102" ry="15.562" style="stroke:#5B7CFA;stroke-width:0.5;"/><text fill="#000000" font-family="sans-serif" font-size="14" lengthAdjust="spacing" textLength="95.6074" x="394.0765" y="362.6505">&#1040;&#1074;&#1090;&#1086;&#1088;&#1080;&#1079;&#1072;&#1094;&#1080;&#1103;</text></g><!--entity UC_stat--><g class="entity" data-qualified-name="NextSound System.UC_stat" data-source-line="30" id="ent0017"><ellipse cx="441.8843" cy="1027.9989" fill="#F4F6FF" rx="92.9943" ry="20.9989" style="stroke:#5B7CFA;stroke-width:0.5;"/><text fill="#000000" font-family="sans-serif" font-size="14" lengthAdjust="spacing" textLength="160.4873" x="361.6406" y="1032.6473">&#1055;&#1088;&#1086;&#1089;&#1084;&#1086;&#1090;&#1088; &#1089;&#1090;&#1072;&#1090;&#1080;&#1089;&#1090;&#1080;&#1082;&#1080;</text></g><!--entity UC_delc--><g class="entity" data-qualified-name="NextSound System.UC_delc" data-source-line="31" id="ent0018"><ellipse cx="441.8848" cy="951.999" fill="#F4F6FF" rx="85.9448" ry="19.589" style="stroke:#5B7CFA;stroke-width:0.5;"/><text fill="#000000" font-family="sans-serif" font-size="14" lengthAdjust="spacing" textLength="144.498" x="369.6358" y="956.6474">&#1059;&#1076;&#1072;&#1083;&#1077;&#1085;&#1080;&#1077; &#1082;&#1086;&#1085;&#1090;&#1077;&#1085;&#1090;&#1072;</text></g><!--entity UC_mod--><g class="entity" data-qualified-name="NextSound System.UC_mod" data-source-line="32" id="ent0019"><ellipse cx="441.8788" cy="877.9978" fill="#F4F6FF" rx="83.4888" ry="19.0978" style="stroke:#5B7CFA;stroke-width:0.5;"/><text fill="#000000" font-family="sans-serif" font-size="14" lengthAdjust="spacing" textLength="138.8311" x="372.4632" y="882.6462">&#1052;&#1086;&#1076;&#1077;&#1088;&#1072;&#1094;&#1080;&#1103; &#1090;&#1088;&#1077;&#1082;&#1086;&#1074;</text></g><!--entity UC_um--><g class="entity" data-qualified-name="NextSound System.UC_um" data-source-line="33" id="ent0020"><ellipse cx="441.8771" cy="798.0034" fill="#F4F6FF" rx="117.4171" ry="25.8834" style="stroke:#5B7CFA;stroke-width:0.5;"/><text fill="#000000" font-family="sans-serif" font-size="14" lengthAdjust="spacing" textLength="213.835" x="334.9596" y="802.6519">&#1059;&#1087;&#1088;&#1072;&#1074;&#1083;&#1077;&#1085;&#1080;&#1077; &#1087;&#1086;&#1083;&#1100;&#1079;&#1086;&#1074;&#1072;&#1090;&#1077;&#1083;&#1103;&#1084;&#1080;</text></g><!--entity UC_uv--><g class="entity" data-qualified-name="NextSound System.UC_uv" data-source-line="34" id="ent0021"><ellipse cx="441.8822" cy="714.0024" fill="#F4F6FF" rx="105.2122" ry="23.4424" style="stroke:#5B7CFA;stroke-width:0.5;"/><text fill="#000000" font-family="sans-serif" font-size="14" lengthAdjust="spacing" textLength="187.4824" x="348.141" y="718.6509">&#1055;&#1088;&#1086;&#1089;&#1084;&#1086;&#1090;&#1088; &#1087;&#1086;&#1083;&#1100;&#1079;&#1086;&#1074;&#1072;&#1090;&#1077;&#1083;&#1077;&#1081;</text></g><!--entity U--><g class="entity" data-qualified-name="U" data-source-line="12" id="ent0001"><ellipse cx="206.4098" cy="363.85" fill="#F1F1F1" rx="16" ry="16" style="stroke:#181818;stroke-width:0.5;"/><path d="M206.4098,383.85 C210.4098,383.85 213.4098,383.85 217.4098,379.85 C225.4098,379.85 233.4098,387.85 233.4098,395.85 L233.4098,399.85 C233.4098,403.85 229.4098,407.85 225.4098,407.85 L187.4098,407.85 C183.4098,407.85 179.4098,403.85 179.4098,399.85 L179.4098,395.85 C179.4098,387.85 187.4098,379.85 195.4098,379.85 C199.4098,383.85 202.4098,383.85 206.4098,383.85" fill="#F1F1F1" style="stroke:#181818;stroke-width:0.5;"/><text fill="#000000" font-family="sans-serif" font-size="14" lengthAdjust="spacing" textLength="103.0996" x="154.86" y="421.3451">&#1055;&#1086;&#1083;&#1100;&#1079;&#1086;&#1074;&#1072;&#1090;&#1077;&#1083;&#1100;</text></g><!--entity L--><g class="entity" data-qualified-name="L" data-source-line="13" id="ent0002"><ellipse cx="47.1831" cy="186.85" fill="#F1F1F1" rx="16" ry="16" style="stroke:#181818;stroke-width:0.5;"/><path d="M47.1831,206.85 C51.1831,206.85 54.1831,206.85 58.1831,202.85 C66.1831,202.85 74.1831,210.85 74.1831,218.85 L74.1831,222.85 C74.1831,226.85 70.1831,230.85 66.1831,230.85 L28.1831,230.85 C24.1831,230.85 20.1831,226.85 20.1831,222.85 L20.1831,218.85 C20.1831,210.85 28.1831,202.85 36.1831,202.85 C40.1831,206.85 43.1831,206.85 47.1831,206.85" fill="#F1F1F1" style="stroke:#181818;stroke-width:0.5;"/><text fill="#000000" font-family="sans-serif" font-size="14" lengthAdjust="spacing" textLength="82.3662" x="6" y="244.3451">&#1057;&#1083;&#1091;&#1096;&#1072;&#1090;&#1077;&#1083;&#1100;</text></g><!--entity A--><g class="entity" data-qualified-name="A" data-source-line="14" id="ent0003"><ellipse cx="47.18" cy="502.85" fill="#F1F1F1" rx="16" ry="16" style="stroke:#181818;stroke-width:0.5;"/><path d="M47.18,522.85 C51.18,522.85 54.18,522.85 58.18,518.85 C66.18,518.85 74.18,526.85 74.18,534.85 L74.18,538.85 C74.18,542.85 70.18,546.85 66.18,546.85 L28.18,546.85 C24.18,546.85 20.18,542.85 20.18,538.85 L20.18,534.85 C20.18,526.85 28.18,518.85 36.18,518.85 C40.18,522.85 43.18,522.85 47.18,522.85" fill="#F1F1F1" style="stroke:#181818;stroke-width:0.5;"/><text fill="#000000" font-family="sans-serif" font-size="14" lengthAdjust="spacing" textLength="51.5703" x="21.3948" y="560.3451">&#1040;&#1088;&#1090;&#1080;&#1089;&#1090;</text></g><!--entity ADM--><g class="entity" data-qualified-name="ADM" data-source-line="15" id="ent0004"><ellipse cx="206.4174" cy="855.85" fill="#F1F1F1" rx="16" ry="16" style="stroke:#181818;stroke-width:0.5;"/><path d="M206.4174,875.85 C210.4174,875.85 213.4174,875.85 217.4174,871.85 C225.4174,871.85 233.4174,879.85 233.4174,887.85 L233.4174,891.85 C233.4174,895.85 229.4174,899.85 225.4174,899.85 L187.4174,899.85 C183.4174,899.85 179.4174,895.85 179.4174,891.85 L179.4174,887.85 C179.4174,879.85 187.4174,871.85 195.4174,871.85 C199.4174,875.85 202.4174,875.85 206.4174,875.85" fill="#F1F1F1" style="stroke:#181818;stroke-width:0.5;"/><text fill="#000000" font-family="sans-serif" font-size="14" lengthAdjust="spacing" textLength="116.0947" x="148.37" y="913.3451">&#1040;&#1076;&#1084;&#1080;&#1085;&#1080;&#1089;&#1090;&#1088;&#1072;&#1090;&#1086;&#1088;</text></g><!--link L to U--><g class="link" data-entity-1="ent0002" data-entity-2="ent0001" data-link-type="extension" data-source-line="17" id="lnk5"><path d="M82.69,247.84 C108.81,277.25 132.5957,304.0229 158.7657,333.4829" fill="none" id="L-to-U" style="stroke:#6E6E8A;stroke-width:1;"/><polygon fill="none" points="170.72,346.94,163.2514,329.4981,154.28,337.4676,170.72,346.94" style="stroke:#6E6E8A;stroke-width:1;stroke-linejoin:miter;stroke-miterlimit:10;"/></g><!--link A to U--><g class="link" data-entity-1="ent0003" data-entity-2="ent0001" data-link-type="extension" data-source-line="18" id="lnk6"><path d="M74.86,501.42 C98.51,480.51 120.0333,461.4709 147.8533,436.8809" fill="none" id="A-to-U" style="stroke:#6E6E8A;stroke-width:1;"/><polygon fill="none" points="161.34,424.96,143.8796,432.3853,151.8269,441.3765,161.34,424.96" style="stroke:#6E6E8A;stroke-width:1;stroke-linejoin:miter;stroke-miterlimit:10;"/></g><!--link U to UC_reg--><g class="link" data-entity-1="ent0001" data-entity-2="ent0015" data-link-type="dependency" data-source-line="37" id="lnk22"><path d="M258.36,394.29 C296.46,400.49 343.5148,408.1576 382.2648,414.4576" fill="none" id="U-to-UC_reg" style="stroke:#6E6E8A;stroke-width:1;"/><polygon fill="#6E6E8A" points="387.2,415.26,378.9585,409.8676,382.2648,414.4576,377.6747,417.7639,387.2,415.26" style="stroke:#6E6E8A;stroke-width:1;stroke-linejoin:miter;stroke-miterlimit:10;"/></g><!--link U to UC_auth--><g class="link" data-entity-1="ent0001" data-entity-2="ent0016" data-link-type="dependency" data-source-line="38" id="lnk23"><path d="M258.36,379.89 C294.99,375.5 339.4857,370.1666 377.6757,365.5766" fill="none" id="U-to-UC_auth" style="stroke:#6E6E8A;stroke-width:1;"/><polygon fill="#6E6E8A" points="382.64,364.98,373.227,362.0825,377.6757,365.5766,374.1816,370.0254,382.64,364.98" style="stroke:#6E6E8A;stroke-width:1;stroke-linejoin:miter;stroke-miterlimit:10;"/></g><!--link L to UC_search--><g class="link" data-entity-1="ent0002" data-entity-2="ent0008" data-link-type="dependency" data-source-line="40" id="lnk24"><path d="M88.47,180.89 C106.32,169.18 127.87,156.01 148.37,146 C228.31,106.97 324.1945,82.3738 384.1745,69.3138" fill="none" id="L-to-UC_search" style="stroke:#6E6E8A;stroke-width:1;"/><polygon fill="#6E6E8A" points="389.06,68.25,379.415,66.2564,384.1745,69.3138,381.1171,74.0732,389.06,68.25" style="stroke:#6E6E8A;stroke-width:1;stroke-linejoin:miter;stroke-miterlimit:10;"/></g><!--link L to UC_play--><g class="link" data-entity-1="ent0002" data-entity-2="ent0009" data-link-type="dependency" data-source-line="41" id="lnk25"><path d="M88.48,197.81 C106.69,192.94 128.54,187.36 148.37,183 C220.82,167.06 299.2082,153.1332 358.3382,143.2632" fill="none" id="L-to-UC_play" style="stroke:#6E6E8A;stroke-width:1;"/><polygon fill="#6E6E8A" points="363.27,142.44,353.7343,139.9764,358.3382,143.2632,355.0514,147.8672,363.27,142.44" style="stroke:#6E6E8A;stroke-width:1;stroke-linejoin:miter;stroke-miterlimit:10;"/></g><!--link L to UC_plm--><g class="link" data-entity-1="ent0002" data-entity-2="ent0010" data-link-type="dependency" data-source-line="42" id="lnk26"><path d="M88.73,209 C147.32,209 252.58,209 334.17,209" fill="none" id="L-to-UC_plm" style="stroke:#6E6E8A;stroke-width:1;"/><polygon fill="#6E6E8A" points="339.17,209,330.17,205,334.17,209,330.17,213,339.17,209" style="stroke:#6E6E8A;stroke-width:1;stroke-linejoin:miter;stroke-miterlimit:10;"/></g><!--link L to UC_plc--><g class="link" data-entity-1="ent0002" data-entity-2="ent0011" data-link-type="dependency" data-source-line="43" id="lnk27"><path d="M88.73,217.05 C155.94,230.4 286.2358,256.2861 368.1658,272.5561" fill="none" id="L-to-UC_plc" style="stroke:#6E6E8A;stroke-width:1;"/><polygon fill="#6E6E8A" points="373.07,273.53,365.0215,267.8536,368.1658,272.5561,363.4633,275.7004,373.07,273.53" style="stroke:#6E6E8A;stroke-width:1;stroke-linejoin:miter;stroke-miterlimit:10;"/></g><!--link A to UC_up--><g class="link" data-entity-1="ent0003" data-entity-2="ent0012" data-link-type="dependency" data-source-line="45" id="lnk28"><path d="M75.17,522.66 C135.91,517.4 279.8887,504.9417 367.8187,497.3217" fill="none" id="A-to-UC_up" style="stroke:#6E6E8A;stroke-width:1;"/><polygon fill="#6E6E8A" points="372.8,496.89,363.4883,493.682,367.8187,497.3217,364.179,501.6521,372.8,496.89" style="stroke:#6E6E8A;stroke-width:1;stroke-linejoin:miter;stroke-miterlimit:10;"/></g><!--link A to UC_del--><g class="link" data-entity-1="ent0003" data-entity-2="ent0013" data-link-type="dependency" data-source-line="46" id="lnk29"><path d="M75.17,527.41 C135.56,532.79 278.1998,545.4957 366.3098,553.3557" fill="none" id="A-to-UC_del" style="stroke:#6E6E8A;stroke-width:1;"/><polygon fill="#6E6E8A" points="371.29,553.8,362.681,549.0161,366.3098,553.3557,361.9702,556.9845,371.29,553.8" style="stroke:#6E6E8A;stroke-width:1;stroke-linejoin:miter;stroke-miterlimit:10;"/></g><!--link A to UC_edit--><g class="link" data-entity-1="ent0003" data-entity-2="ent0014" data-link-type="dependency" data-source-line="47" id="lnk30"><path d="M75.17,532.49 C137.47,549.78 287.7621,591.5028 374.6321,615.6128" fill="none" id="A-to-UC_edit" style="stroke:#6E6E8A;stroke-width:1;"/><polygon fill="#6E6E8A" points="379.45,616.95,371.8475,610.6888,374.6321,615.6128,369.7081,618.3974,379.45,616.95" style="stroke:#6E6E8A;stroke-width:1;stroke-linejoin:miter;stroke-miterlimit:10;"/></g><!--link ADM to UC_stat--><g class="link" data-entity-1="ent0004" data-entity-2="ent0017" data-link-type="dependency" data-source-line="49" id="lnk31"><path d="M231.18,916.9 C247.78,940.98 272.02,970.69 300.46,989 C319.82,1001.46 338.3257,1008.7134 360.3657,1014.5334" fill="none" id="ADM-to-UC_stat" style="stroke:#6E6E8A;stroke-width:1;"/><polygon fill="#6E6E8A" points="365.2,1015.81,357.5195,1009.6447,360.3657,1014.5334,355.477,1017.3796,365.2,1015.81" style="stroke:#6E6E8A;stroke-width:1;stroke-linejoin:miter;stroke-miterlimit:10;"/></g><!--link ADM to UC_delc--><g class="link" data-entity-1="ent0004" data-entity-2="ent0018" data-link-type="dependency" data-source-line="50" id="lnk32"><path d="M264.59,901.99 C276.36,906.58 288.74,911.14 300.46,915 C326.56,923.59 351.042,930.3564 376.122,936.6864" fill="none" id="ADM-to-UC_delc" style="stroke:#6E6E8A;stroke-width:1;"/><polygon fill="#6E6E8A" points="380.97,937.91,373.2225,931.8292,376.122,936.6864,371.2648,939.5859,380.97,937.91" style="stroke:#6E6E8A;stroke-width:1;stroke-linejoin:miter;stroke-miterlimit:10;"/></g><!--link ADM to UC_mod--><g class="link" data-entity-1="ent0004" data-entity-2="ent0019" data-link-type="dependency" data-source-line="51" id="lnk33"><path d="M264.82,878 C292.91,878 322.23,878 353.08,878" fill="none" id="ADM-to-UC_mod" style="stroke:#6E6E8A;stroke-width:1;"/><polygon fill="#6E6E8A" points="358.08,878,349.08,874,353.08,878,349.08,882,358.08,878" style="stroke:#6E6E8A;stroke-width:1;stroke-linejoin:miter;stroke-miterlimit:10;"/></g><!--link ADM to UC_um--><g class="link" data-entity-1="ent0004" data-entity-2="ent0020" data-link-type="dependency" data-source-line="52" id="lnk34"><path d="M264.71,854.37 C276.47,849.76 288.82,845.09 300.46,841 C322.71,833.18 342.4257,826.8527 364.6557,820.1027" fill="none" id="ADM-to-UC_um" style="stroke:#6E6E8A;stroke-width:1;"/><polygon fill="#6E6E8A" points="369.44,818.65,359.6661,817.4375,364.6557,820.1027,361.9904,825.0923,369.44,818.65" style="stroke:#6E6E8A;stroke-width:1;stroke-linejoin:miter;stroke-miterlimit:10;"/></g><!--link ADM to UC_uv--><g class="link" data-entity-1="ent0004" data-entity-2="ent0021" data-link-type="dependency" data-source-line="53" id="lnk35"><path d="M227.88,839.1 C244.13,811.82 269.27,776.51 300.46,755 C317.71,743.11 333.6303,736.055 353.7903,730.015" fill="none" id="ADM-to-UC_uv" style="stroke:#6E6E8A;stroke-width:1;"/><polygon fill="#6E6E8A" points="358.58,728.58,348.8106,727.3313,353.7903,730.015,351.1066,734.9947,358.58,728.58" style="stroke:#6E6E8A;stroke-width:1;stroke-linejoin:miter;stroke-miterlimit:10;"/></g><?plantuml-src ZLEzRjim4Dxv58GxPskTJWOKDvwIBaRcWfKOMOWa6XGTrsWBk0bGT2YGR5qAj45Vm4XYs7LivnMeD-gHj2ZALe9wa7cy--xdutSnFHLOCCoZi2Tm477gYuYbA3kBqZxX9C5PZmHi6AKXFYLnHXtFU-AVXPmDqg3DOiRnYux-EH5zY20XxOfHJB5AJT8mTbCGNp1kt6H8CvQupa56VP9H_15XVB1JwsMd2RN0mtX0-URsrS5-k-F1hSSv6sukcuVDmzSU-eoGBeSRyfTSouVykvp1_wsSv1Togkm69Xa-iL4tS7UPVzlo7rd_TJu6ppp_abzeZrTwvBrSohbS6My-rZdM-TZ4lJb6w0ZlxNrgGJMlE21B46wyfHz4LqsBkwDCqAIXIIW8CGD0Qhd0EljKBjGafl_skumIxlUg08XQ0y1CD5TJg-xaj4mmAU3zc8mgu3_oKOq0e0U8D33vg8s_yDKpGlrbcI2fu6_0EGDA9azXdT9-1Va3C7T0yoNWeSEQPWVzhLPLcRBDNK10umhYDxWLPg7VScmKyIIQ1f7OWTyvp_mLpbT5DATX9VXQtXeTGFRPTZ0PYFetMy8NacD3LI4vIB6GS_laWeXdYT0AMMabhrp6WOugvJyXxbvEos5g9PQmu7yaKhTcLserxFCbpuvSdq9fnoOuLujz0alKAXYtXcPKRrhBMGjhQvqxLk8QFjARsTfep9wLVAoXrO1Wdsq9zGoEhTbrR4MROyBqhdN-3m00?></g></svg>